<?xml version="1.0" encoding="UTF-8" standalone="no"?>
<svg
   width="752pt"
   height="752pt"
   version="1.1"
   viewBox="0 0 752 752"
   id="svg360"
   xmlns="http://www.w3.org/2000/svg"
   xmlns:svg="http://www.w3.org/2000/svg">
  <defs
     id="defs350">
    <clipPath
       id="b">
      <path
         d="m120 126h477v507h-477z"
         id="path344" />
    </clipPath>
    <clipPath
       id="a">
      <path
         d="m666.01 208.56-457.45-122.57-122.57 457.45 457.45 122.57z"
         id="path347" />
    </clipPath>
  </defs>
  <path
     fill="#61dafb"
     stroke="none"
     d="m 588.78287,252.77767 c 21.56681,-95.2437 12.00747,-170.902432 -30.25184,-195.150535 -9.6759,-5.712296 -20.98392,-8.393571 -33.28283,-8.393571 v -0.174783 c -41.2101,0 -95.06885,29.377507 -149.51048,80.205239 C 321.23779,78.727728 267.32074,49.699963 226.22722,49.699963 v 0.174794 c -12.64863,0 -24.01494,2.623017 -33.86572,8.335292 C 150.27706,82.458158 140.89258,158.00029 162.57599,252.95256 69.488936,281.68889 8.8687031,327.62038 8.8687031,376.05826 c 0,48.67107 60.9116789,94.77742 154.2901569,123.33887 -21.50852,95.18541 -11.94917,170.90242 30.25183,195.15052 9.73421,5.71231 21.1005,8.39357 33.63258,8.39357 41.2101,0 95.06885,-29.31922 149.51049,-80.20523 54.49993,50.5363 108.41697,79.62235 149.51048,79.62235 12.64865,0 24.01494,-2.68129 33.86572,-8.39357 42.08443,-24.24811 51.46891,-99.79024 29.78553,-194.74251 92.79558,-28.56145 153.41581,-74.6678 153.41581,-123.164 0,-48.61274 -60.91167,-94.7191 -154.34843,-123.28057 z M 525.07333,82.574698 c 6.87807,0 12.35721,1.39892 17.02031,3.90534 20.34275,11.65773 29.20262,56.132012 22.32454,113.313222 -1.63208,14.04757 -4.37164,28.8529 -7.63581,43.94968 -29.37749,-7.16951 -61.37798,-12.70695 -95.01056,-16.26255 -20.22617,-27.68713 -41.21009,-52.86785 -62.31059,-74.84269 48.72933,-45.23202 94.48596,-70.063002 125.61211,-70.179572 z M 351.89765,152.81257 c -20.98394,21.97484 -41.90958,46.98069 -61.84432,74.66782 -33.80742,3.5556 -65.80792,9.09304 -95.12713,16.4374 -3.43904,-14.98019 -6.00372,-29.43577 -7.81068,-43.36678 -6.99464,-57.1812 1.63209,-101.655472 21.85826,-113.488071 4.48821,-2.622991 10.31709,-3.847071 17.25344,-3.847071 v -0.17478 c 30.89301,0 76.88278,24.656122 125.67043,69.771552 z m 196.37458,123.39715 c -5.53742,19.35185 -12.47378,39.28658 -20.22617,59.16303 -6.17862,-11.94919 -12.53207,-23.95666 -19.6433,-35.90583 -6.81976,-11.94919 -14.16415,-23.60692 -21.50851,-35.03151 21.27537,3.14758 41.7347,7.05294 61.37798,11.77431 z M 479.66645,435.6293 c -11.65773,20.22618 -23.60692,39.40313 -36.0224,57.23948 -22.32458,1.92353 -44.8823,2.97272 -67.67318,2.97272 -22.61601,0 -45.17373,-1.04919 -67.32344,-2.91442 -12.41548,-17.77806 -24.59782,-36.78017 -36.25556,-56.83148 -11.36629,-19.64328 -21.6834,-39.46142 -31.06787,-59.57102 9.26789,-20.05133 19.70158,-40.10264 30.95128,-59.74591 11.65776,-20.1679 23.60692,-39.28658 36.0807,-57.12293 22.26628,-1.98183 44.88231,-2.97273 67.61489,-2.97273 22.61601,0 45.23202,0.9909 67.32344,2.79786 12.47377,17.83634 24.59782,36.83845 36.25556,56.88977 11.42459,19.585 21.68339,39.51973 31.12615,59.57102 -9.44276,20.05131 -19.70156,40.10264 -31.00957,59.68764 z m 69.01381,40.10261 c -19.585,4.83796 -40.2775,8.85987 -61.61114,12.00746 7.34436,-11.54116 14.63046,-23.37376 21.50851,-35.43952 6.93636,-12.00747 13.28981,-24.1315 19.46843,-36.13898 8.10214,20.1096 14.9219,40.1609 20.6342,59.57104 z M 376.26232,575.87186 c -13.87271,-14.33902 -27.80371,-30.3684 -41.55985,-47.91328 13.46468,0.64117 27.22083,1.10748 41.15181,1.10748 14.04759,0 27.97858,-0.29144 41.61812,-1.10748 -13.46468,17.54488 -27.39566,33.57426 -41.21008,47.91328 z m -111.3314,-88.13249 c -21.27538,-3.14759 -41.73472,-7.05292 -61.37798,-11.8326 5.5957,-19.35182 12.47377,-39.16999 20.22616,-59.10473 6.17859,11.94918 12.53208,23.95667 19.64331,35.90584 6.99462,11.94917 14.16414,23.6652 21.50851,35.03149 z M 375.56285,176.30291 c 13.87271,14.33903 27.80371,30.36841 41.55984,47.91332 -13.4647,-0.64118 -27.22082,-1.10751 -41.15182,-1.10751 -14.04757,0 -27.97858,0.34974 -41.61814,1.10751 13.46472,-17.54491 27.3957,-33.57429 41.21012,-47.91332 z m -110.8068,88.1325 c -7.34436,11.54116 -14.63046,23.31548 -21.50852,35.43952 -6.93635,12.00747 -13.28984,24.01494 -19.46843,35.90584 -8.10213,-19.99301 -14.92191,-40.10261 -20.6342,-59.57105 19.585,-4.6048 40.27751,-8.62673 61.61115,-11.77431 z M 129.35141,451.83354 c -52.984409,-22.61599 -87.258154,-52.28495 -87.258154,-75.7753 0,-23.43203 34.273745,-53.27584 87.258154,-75.717 12.82353,-5.53742 26.92939,-10.49197 41.44328,-15.09676 8.51014,29.3192 19.75987,59.86247 33.69085,91.10522 -13.75611,31.18443 -24.83097,61.55286 -33.22454,90.7555 -14.80533,-4.66311 -28.9112,-9.73422 -41.90959,-15.27166 z m 58.23043,100.54799 c 1.63207,-14.04757 4.31334,-28.8529 7.63579,-44.00795 29.26094,7.2278 61.37802,12.76522 95.01057,16.32083 20.22616,27.68712 41.15181,52.80953 62.25232,74.84265 -48.78762,45.34861 -94.60253,70.17958 -125.72868,70.17958 -6.70322,-0.17478 -12.35721,-1.5155 -16.90375,-4.0802 -20.34274,-11.65773 -29.20262,-56.07371 -22.26625,-113.25491 z m 355.38612,112.73031 c -4.42994,2.62299 -10.25881,3.90534 -17.19516,3.90534 -30.95129,0 -76.94106,-24.71439 -125.67042,-69.77156 20.92565,-22.03313 41.90956,-46.98066 61.78603,-74.66778 33.80741,-3.61391 65.80792,-9.15133 95.18541,-16.43743 3.43902,15.09679 6.1786,29.55238 7.81068,43.48335 6.99464,57.1812 -1.63208,101.65549 -21.91654,113.48808 z m 38.06251,-198.18152 c -8.51017,-29.3775 -19.75987,-59.86248 -33.69086,-91.10522 13.75612,-31.18446 24.83097,-61.55286 33.22454,-90.69719 14.80535,4.6048 28.91119,9.67591 42.08444,15.21333 52.92612,22.61601 87.19988,52.28497 87.19988,75.717 -0.11659,23.49035 -34.39033,53.33417 -87.37475,75.7753 -12.82351,5.53744 -26.92939,10.43368 -41.44325,15.09678 z"
     id="path51"
     style="stroke-width:0.0582887" />
  <path
     fill="#61dafb"
     stroke="none"
     d="m 444.40177,375.97086 c 0,12.00747 -3.14759,23.84006 -9.15132,34.27375 -6.00373,10.37538 -14.63046,19.0021 -25.00585,25.00584 -10.43369,5.94546 -22.26628,9.15132 -34.21545,9.15132 -12.00747,0 -23.84008,-3.20586 -34.21546,-9.15132 -10.37539,-6.00374 -19.06043,-14.63046 -25.06415,-25.00584 -5.94544,-10.43369 -9.15131,-22.26628 -9.15131,-34.27375 0,-11.94918 3.20587,-23.7818 9.15131,-34.15718 6.00372,-10.37539 14.68876,-19.0604 25.06415,-25.06413 10.37538,-6.00374 22.20799,-9.15133 34.21546,-9.15133 11.94917,0 23.78176,3.14759 34.21545,9.15133 10.37539,6.00373 19.00212,14.68874 25.00585,25.06413 6.00373,10.37538 9.15132,22.208 9.15132,34.15718 z"
     id="path58"
     style="stroke-width:0.0582887" />
</svg>
