<?xml version="1.0" encoding="UTF-8"?>
<svg version="1.1" viewBox="0 0 240 240" xmlns="http://www.w3.org/2000/svg">
 <defs>
  <style>.cls-1{fill:url(#linear-gradient);}</style>
 </defs>
 <title>AlloMovieLogo</title>
 <path d="m240 120c0 42.871-22.872 82.487-60 103.92-37.13 21.437-82.87 21.437-120 0-37.13-21.435-60-61.049-60-103.92 0-42.871 22.872-82.487 60-103.92 37.13-21.437 82.87-21.437 120 0 37.13 21.435 60 61.049 60 103.92" fill="#ecac00" stroke-width=".31915"/>
 <path d="m66.486 100.84 86.317 23.131-70.989-54.424 0.0013-0.0013c-0.97612-0.77668-1.6044-1.9074-1.7491-3.1466-0.14461-1.2392 0.20695-2.4846 0.97739-3.4656l16.757-21.843c0.76296-0.98986 1.8887-1.6381 3.1279-1.8002 1.2404-0.16332 2.4933 0.17205 3.4871 0.93253l89.741 68.837c0.98611 0.77046 1.6257 1.9011 1.779 3.1429 0.15323 1.2417-0.19324 2.4946-0.96244 3.4806l-16.188 21.089-16.204 60.472c-0.32412 1.2105-1.1158 2.2414-2.2004 2.8686-1.0846 0.62582-2.3736 0.79537-3.584 0.47124l-109.27-29.278v1e-3c-1.2105-0.32536-2.2414-1.117-2.8686-2.2017-0.62582-1.0846-0.79539-2.3736-0.47125-3.584l16.443-61.362c0.32661-1.2217 1.1308-2.2614 2.2303-2.886 1.1008-0.62333 2.4061-0.78041 3.6229-0.43509zm35.911-50.253-6.9527 9.0657 16.018-2.1143zm19.659 15.047-25.348 3.3549 12.001 9.2304 25.348-3.3549zm22.629 17.382-25.348 3.3549 11.238 8.6097 25.342-3.3313zm21.843 16.757-25.348 3.3549 12.838 9.8465 25.348-3.355zm-1.9224 21.319 9.0657 6.9527 6.9579-9.0885z" fill="#202846" stroke-width=".31915"/>
</svg>
