<?xml version="1.0" encoding="UTF-8"?>
<svg width="148.72" height="132.44" version="1.1" xmlns="http://www.w3.org/2000/svg">
 <path d="m117.46 41.262c4.3682-19.291 2.432-34.615-6.1273-39.526-1.9598-1.157-4.2502-1.7001-6.7412-1.7001v-0.0354c-8.3468 0-19.256 5.9502-30.282 16.245-11.039-10.236-21.959-16.115-30.282-16.115v0.035401c-2.5619 0-4.8641 0.53128-6.8593 1.6883-8.5239 4.9113-10.425 20.212-6.0329 39.444-18.854 5.8204-31.132 15.123-31.132 24.934 0 9.858 12.337 19.197 31.25 24.981-4.3564 19.279-2.4202 34.615 6.1273 39.526 1.9716 1.157 4.2738 1.7001 6.8121 1.7001 8.3468 0 19.256-5.9384 30.282-16.245 11.039 10.236 21.959 16.127 30.282 16.127 2.5619 0 4.8641-0.54309 6.8593-1.7001 8.5239-4.9113 10.425-20.212 6.0329-39.444 18.795-5.7849 31.073-15.123 31.073-24.946 0-9.8462-12.337-19.185-31.262-24.97zm-12.904-34.474c1.3931 0 2.5029 0.28334 3.4474 0.791 4.1203 2.3612 5.9148 11.369 4.5217 22.951-0.33057 2.8452-0.88546 5.844-1.5466 8.9017-5.9502-1.4521-12.432-2.5737-19.244-3.2939-4.0967-5.6078-8.3468-10.708-12.621-15.159 9.8698-9.1615 19.138-14.191 25.442-14.214zm-35.076 14.226c-4.2502 4.4509-8.4885 9.5156-12.526 15.123-6.8475 0.72016-13.329 1.8417-19.267 3.3293-0.69655-3.0341-1.216-5.962-1.582-8.7837-1.4167-11.582 0.33057-20.59 4.4272-22.986 0.90906-0.53127 2.0897-0.7792 3.4946-0.7792v-0.035406c6.2572 0 15.572 4.9939 25.454 14.132zm39.774 24.993c-1.1216 3.9196-2.5265 7.9572-4.0967 11.983-1.2514-2.4202-2.5383-4.8523-3.9786-7.2725-1.3813-2.4202-2.8689-4.7814-4.3564-7.0954 4.3092 0.63752 8.4531 1.4285 12.432 2.3848zm-13.896 32.289c-2.3612 4.0967-4.7814 7.9808-7.2961 11.593-4.5217 0.3896-9.0906 0.60211-13.707 0.60211-4.5807 0-9.1496-0.21251-13.636-0.5903-2.5147-3.6008-4.9821-7.4496-7.3433-11.511-2.3022-3.9786-4.3918-7.9927-6.2926-12.066 1.8772-4.0613 3.9904-8.1225 6.269-12.101 2.3612-4.0849 4.7814-7.9572 7.3079-11.57 4.5099-0.40141 9.0906-0.60211 13.695-0.60211 4.5807 0 9.1615 0.2007 13.636 0.56669 2.5265 3.6126 4.9821 7.4614 7.3433 11.523 2.314 3.9668 4.3918 8.0045 6.3044 12.066-1.9126 4.0613-3.9904 8.1225-6.2808 12.089zm13.978 8.1225c-3.9668 0.97989-8.1579 1.7945-12.479 2.432 1.4876-2.3376 2.9633-4.7342 4.3564-7.178 1.4049-2.432 2.6918-4.8877 3.9432-7.3197 1.641 4.0731 3.0223 8.1343 4.1793 12.066zm-34.922 20.283c-2.8098-2.9043-5.6314-6.1509-8.4177-9.7045 2.7272 0.12986 5.5134 0.22431 8.335 0.22431 2.8452 0 5.6669-0.0591 8.4295-0.22431-2.7272 3.5536-5.5488 6.8002-8.3468 9.7045zm-22.549-17.851c-4.3092-0.63752-8.4531-1.4285-12.432-2.3966 1.1334-3.9196 2.5265-7.9336 4.0967-11.971 1.2514 2.4202 2.5383 4.8523 3.9786 7.2725 1.4167 2.4202 2.8689 4.7932 4.3564 7.0954zm22.408-63.079c2.8098 2.9043 5.6315 6.1509 8.4177 9.7045-2.7272-0.12987-5.5134-0.22432-8.335-0.22432-2.8452 0-5.6669 0.07083-8.4295 0.22432 2.7272-3.5536 5.5488-6.8003 8.3468-9.7045zm-22.443 17.851c-1.4876 2.3376-2.9633 4.7224-4.3564 7.178-1.4049 2.432-2.6918 4.8641-3.9432 7.2725-1.641-4.0495-3.0223-8.1225-4.1793-12.066 3.9668-0.93267 8.1579-1.7473 12.479-2.3848zm-27.425 37.956c-10.732-4.5807-17.674-10.59-17.674-15.348 0-4.746 6.9419-10.791 17.674-15.336 2.5973-1.1216 5.4544-2.1251 8.3941-3.0578 1.7237 5.9384 4.0022 12.125 6.8239 18.453-2.7862 6.3162-5.0294 12.467-6.7294 18.382-2.9987-0.94448-5.8558-1.9716-8.4885-3.0932zm11.794 20.365c0.33056-2.8452 0.87364-5.844 1.5466-8.9135 5.9266 1.4639 12.432 2.5855 19.244 3.3057 4.0967 5.6079 8.335 10.696 12.609 15.159-9.8816 9.1851-19.161 14.214-25.466 14.214-1.3577-0.0354-2.5029-0.30695-3.4237-0.82642-4.1203-2.3612-5.9148-11.357-4.5099-22.939zm71.981 22.833c-0.89725 0.53127-2.0778 0.79101-3.4828 0.79101-6.269 0-15.584-5.0058-25.454-14.132 4.2383-4.4627 8.4885-9.5156 12.514-15.123 6.8475-0.73198 13.329-1.8535 19.279-3.3293 0.69658 3.0578 1.2514 5.9856 1.582 8.8073 1.4167 11.582-0.33056 20.59-4.439 22.986zm7.7093-40.14c-1.7237-5.9502-4.0022-12.125-6.8239-18.453 2.7862-6.3162 5.0294-12.467 6.7294-18.37 2.9987 0.93267 5.8558 1.9598 8.5239 3.0814 10.72 4.5807 17.662 10.59 17.662 15.336-0.0237 4.7578-6.9655 10.802-17.697 15.348-2.5973 1.1216-5.4544 2.1133-8.394 3.0578z" fill="#61dafb" stroke-width=".011806"/>
 <path d="m88.217 66.214c0 2.432-0.63753 4.8286-1.8535 6.9419-1.216 2.1015-2.9633 3.8488-5.0648 5.0648-2.1133 1.2042-4.5099 1.8535-6.9301 1.8535-2.432 0-4.8287-0.64933-6.9301-1.8535-2.1015-1.216-3.8606-2.9633-5.0766-5.0648-1.2042-2.1133-1.8535-4.5099-1.8535-6.9419 0-2.4202 0.64933-4.8168 1.8535-6.9183 1.216-2.1015 2.9751-3.8606 5.0766-5.0766s4.4981-1.8535 6.9301-1.8535c2.4202 0 4.8168 0.63752 6.9301 1.8535 2.1015 1.216 3.8487 2.9751 5.0648 5.0766 1.216 2.1015 1.8535 4.4981 1.8535 6.9183z" fill="#61dafb" stroke-width=".011806"/>
 <defs>
  <style>.cls-1{fill:url(#linear-gradient);}</style>
 </defs>
 <title>React_logo</title>
</svg>
